<?xml version="1.0" standalone="no"?><!DOCTYPE svg PUBLIC "-//W3C//DTD SVG 1.1//EN" "http://www.w3.org/Graphics/SVG/1.1/DTD/svg11.dtd"><svg class="icon" height="512" viewBox="0 0 1024 1024" version="1.1" xmlns="http://www.w3.org/2000/svg"><path d="M857.6 409.088c0-190.976-154.624-345.6-345.6-345.6S166.4 218.112 166.4 409.088c0 74.752 24.064 143.36 64 200.192h-0.512l3.584 4.608c6.656 8.704 13.312 16.896 20.48 25.088l258.048 317.952 258.56-318.976c6.656-7.68 12.8-15.36 18.944-23.04l4.608-5.632h-0.512c39.936-56.832 64-125.44 64-200.192zM512 635.392c-122.88 0-222.208-99.328-222.208-222.208S389.12 190.976 512 190.976s222.208 99.84 222.208 222.208c0 122.88-99.328 222.208-222.208 222.208z" fill="#FF6000" /><path d="M646.656 333.312c-7.168 0-12.8 5.632-12.8 12.288V275.456c0-7.168-6.144-12.8-13.824-12.8H400.384c-7.68 0-13.824 5.632-13.824 12.8v66.048c-1.536-5.12-6.656-8.704-12.288-8.704-7.168 0-12.8 5.632-12.8 12.288v35.84c0 6.656 5.632 12.288 12.8 12.288 5.632 0 10.752-3.584 12.288-8.192v145.408c0 7.168 6.144 12.8 13.824 12.8h10.24v14.336c0 13.312 11.776 24.064 26.112 24.064s26.112-10.752 26.112-24.064v-14.336h94.208v14.336c0 13.312 11.776 24.064 26.112 24.064s26.112-10.752 26.112-24.064v-14.336h11.776c7.68 0 13.824-5.632 13.824-12.8V380.928c0 6.656 5.632 12.288 12.8 12.288s12.8-5.632 12.8-12.288v-35.84c-1.024-6.144-6.656-11.776-13.824-11.776z m-166.912-51.2h60.928c5.632 0 10.24 4.608 10.24 9.728 0 5.12-4.608 9.728-10.24 9.728H479.744c-5.632 0-10.24-4.608-10.24-9.728 0-5.632 4.608-9.728 10.24-9.728z m-32.256 206.336c-11.264 0-20.48-8.704-20.48-19.456s9.216-19.456 20.48-19.456 20.48 8.704 20.48 19.456-9.216 19.456-20.48 19.456z m123.904 0c-11.264 0-20.48-8.704-20.48-19.456s9.216-19.456 20.48-19.456 20.48 8.704 20.48 19.456-9.216 19.456-20.48 19.456z m38.912-82.944c0 7.68-6.656 14.336-14.848 14.336H425.472c-8.192 0-14.848-6.144-14.848-14.336V331.264c0-7.68 6.656-14.336 14.848-14.336h169.984c8.192 0 14.848 6.144 14.848 14.336v74.24z" fill="#FF6000" /></svg>